<svg width="422" height="64" viewBox="0 0 422 64" fill="none" xmlns="http://www.w3.org/2000/svg">
<path d="M304.65 46.525L291.07 21.29H295.34L304.825 40.015L315.255 20.695L325.72 40.015L335.1 21.29H339.405L325.86 46.525L315.255 26.925L304.65 46.525ZM342.722 46V21.29H346.572V46H342.722ZM379.398 31.93C381.988 32.1633 383.948 33.0267 385.278 34.52C386.608 36.0133 387.273 38.3933 387.273 41.66V46H383.423V41.59C383.423 39.0467 382.98 37.355 382.093 36.515C381.207 35.6517 379.632 35.22 377.368 35.22H356.298V46H352.448V21.29H356.298V31.825H375.968L381.813 21.29H385.943L379.398 31.93ZM392.761 46V21.29H396.611V46H392.761Z" fill="#0F98D9"/>
<path d="M0 32C0 14.3269 14.3269 0 32 0H241C258.673 0 273 14.3269 273 32V32C273 49.6731 258.673 64 241 64H32C14.3269 64 0 49.6731 0 32V32Z" fill="#0F98D9"/>
<path d="M35.288 28.848L41.304 19.856H47L39.288 31.216L47 42H41.272L35.192 33.36H22.808V42H17.72V19.856H22.808V28.848H35.288ZM50.72 19.856H76.608V24.24H55.68V28.816H74.624V33.104H55.68V37.584H76.608V42H50.72V19.856ZM81.1263 19.856H107.014V24.24H86.0863V28.816H105.03V33.104H86.0863V37.584H107.014V42H81.1263V19.856ZM136.173 35.12V19.856H141.229V42H136.461L116.557 26.704V42H111.533V19.856H116.269L136.173 35.12ZM145.506 43.984H161.506V47.952H145.506V43.984ZM165.814 19.856H184.342C191.35 19.856 194.166 23.088 194.166 28.016V28.048C194.166 33.008 191.35 36.208 184.342 36.208H170.774V42H165.814V19.856ZM189.174 28.048V28.016C189.174 25.648 187.798 24.432 184.342 24.432H170.774V31.632H184.342C187.798 31.632 189.174 30.448 189.174 28.048ZM221.774 34.448L227.022 42H221.422L216.942 35.152H216.91H203.086V42H198.126V19.856H216.91C223.758 19.856 226.478 23.088 226.478 27.568V27.6C226.478 30.768 225.102 33.264 221.774 34.448ZM216.91 24.304H203.086V30.896H216.91C220.046 30.896 221.486 29.84 221.486 27.6V27.568C221.486 25.36 220.046 24.304 216.91 24.304ZM228.963 19.856H256.739V24.56H245.411V42H240.291V24.56H228.963V19.856Z" fill="white"/>
</svg>
