<svg width="2020" height="372" viewBox="0 0 2020 372" fill="none" xmlns="http://www.w3.org/2000/svg">
<path d="M154.053 0L84.2422 42.881V203.471L276.632 321.645L316.126 297.387L125.557 180.331V66.0211L154.053 48.5177L201.682 77.7737L241.176 53.5149L154.053 0Z" fill="white"/>
<path d="M42.3353 67.6104V225.617L240.863 347.562L201.369 371.82L42.3353 274.135V334.788L1.02051 309.41V92.9878L42.3353 67.6104Z" fill="white"/>
<path d="M281.188 76.4229L167.657 146.158V194.675L320.681 100.682L281.188 76.4229Z" fill="white"/>
<path d="M562.728 117.08L604.088 55.26H643.248L590.228 133.36L643.248 207.5H603.868L562.068 148.1H476.928V207.5H441.948V55.26H476.928V117.08H562.728ZM668.823 55.26H846.803V85.4H702.923V116.86H833.163V146.34H702.923V177.14H846.803V207.5H668.823V55.26ZM877.866 55.26H1055.85V85.4H911.966V116.86H1042.21V146.34H911.966V177.14H1055.85V207.5H877.866V55.26ZM1256.31 160.2V55.26H1291.07V207.5H1258.29L1121.45 102.34V207.5H1086.91V55.26H1119.47L1256.31 160.2ZM1328.18 55.26H1506.16V85.4H1362.28V116.86H1492.52V146.34H1362.28V177.14H1506.16V207.5H1328.18V55.26ZM1526 55.26H1716.96V87.6H1639.08V207.5H1603.88V87.6H1526V55.26ZM1778.02 207.5H1743.04V55.26H1778.02V207.5ZM2013.22 73.08L1992.98 97.72C1983.08 88.04 1969.44 85.4 1951.18 85.4H1890.24C1858.56 85.4 1840.74 102.56 1840.74 131.16V131.38C1840.96 160.42 1858.78 177.36 1890.24 177.36H1951.18C1970.1 177.36 1983.3 174.28 1992.98 164.82L2013.22 189.68C1998.26 203.54 1979.56 208.82 1951.18 208.82H1890.24C1837.22 208.82 1806.42 179.56 1806.42 131.38V131.16C1806.42 83.2 1837.22 53.94 1890.24 53.94H1951.18C1978.68 53.94 1998.04 58.78 2013.22 73.08ZM653.761 326.73V316.59H773.361V326.73H653.761ZM836.221 266.54H910.971C937.361 266.54 948.801 279.28 948.801 299.17V299.3C948.801 319.19 937.361 331.93 910.971 331.93H851.561V356.5H836.221V266.54ZM933.461 299.3V299.17C933.461 287.08 926.701 280.58 910.971 280.58H851.561V317.89H910.971C926.701 317.89 933.461 311.52 933.461 299.3ZM1010.8 265.76H1048.37C1079.83 265.76 1097.77 282.79 1097.77 311.39V311.52C1097.77 340.25 1079.83 357.28 1048.37 357.28H1010.8C979.471 357.28 961.401 340.25 961.401 311.52V311.39C961.401 282.79 979.471 265.76 1010.8 265.76ZM1010.8 343.24H1048.37C1070.86 343.24 1082.56 331.54 1082.56 311.52V311.39C1082.56 291.5 1070.86 279.8 1048.37 279.8H1010.8C988.441 279.8 976.741 291.5 976.741 311.39V311.52C976.741 331.54 988.441 343.24 1010.8 343.24ZM1208.32 325.04L1231.07 356.5H1213.78L1193.5 327.25H1191.68H1131.62V356.5H1116.28V266.54H1191.68C1217.68 266.54 1228.86 279.28 1228.86 297.09V297.22C1228.86 310.48 1222.49 320.75 1208.32 325.04ZM1191.68 280.19H1131.62V313.99H1191.68C1206.5 313.99 1213.52 308.01 1213.52 297.22V297.09C1213.52 286.3 1206.5 280.19 1191.68 280.19ZM1239.77 266.54H1351.57V280.97H1303.47V356.5H1287.87V280.97H1239.77V266.54ZM1368.28 266.54H1471.37V280.06H1383.62V305.15H1464.48V318.41H1383.62V342.98H1471.37V356.5H1368.28V266.54ZM1490.66 266.54H1563.2C1594.53 266.54 1611.95 283.18 1611.95 311.52V311.65C1611.95 339.99 1594.53 356.5 1563.2 356.5H1490.66V266.54ZM1506.39 280.58V342.46H1563.2C1585.43 342.46 1596.74 331.02 1596.74 311.65V311.52C1596.74 292.02 1585.3 280.58 1563.2 280.58H1506.39ZM1669.64 326.73V316.59H1789.24V326.73H1669.64Z" fill="white"/>
</svg>
