<svg width="422" height="86" xmlns="http://www.w3.org/2000/svg" fill="none">
 <defs>
  <clipPath id="assetClipPath_NDLhkW8Z">
   <path id="svg_1" fill="#ffffff" d="m0,21.99945l422,0l0,64l-422,0l0,-64z"/>
  </clipPath>
  <clipPath id="assetClipPath_ArylPvbK">
   <path id="svg_2" fill="#ffffff" d="m184,-0.00055l270.367,0l0,157.469l-270.367,0l0,-157.469z"/>
  </clipPath>
 </defs>
 <g>
  <title>Layer 1</title>
  <g id="svg_3">
   <g id="svg_4" clip-path="url(#assetClipPath_NDLhkW8Z)">
    <path id="svg_5" fill="rgba(15,152,217,1)" d="m304.65,68.52445l-13.58,-25.235l4.27,0l9.485,18.725l10.43,-19.32l10.465,19.32l9.38,-18.725l4.305,0l-13.545,25.235l-10.605,-19.6l-10.605,19.6zm38.072,-0.525l0,-24.71l3.85,0l0,24.71l-3.85,0zm36.676,-14.07c2.59,0.2333 4.55,1.0967 5.88,2.59c1.33,1.4933 1.995,3.8733 1.995,7.14l0,4.34l-3.85,0l0,-4.41c0,-2.5433 -0.443,-4.235 -1.33,-5.075c-0.886,-0.8633 -2.461,-1.295 -4.725,-1.295l-21.07,0l0,10.78l-3.85,0l0,-24.71l3.85,0l0,10.535l19.67,0l5.845,-10.535l4.13,0l-6.545,10.64zm13.363,14.07l0,-24.71l3.85,0l0,24.71l-3.85,0z"/>
    <path id="svg_6" fill="rgba(15,152,217,1)" d="m0,53.99945c0,-17.6731 14.3269,-32 32,-32l209,0c17.673,0 32,14.3269 32,32l0,0c0,17.6731 -14.327,32 -32,32l-209,0c-17.6731,0 -32,-14.3269 -32,-32l0,0z"/>
    <path id="svg_7" fill="rgba(255,255,255,1)" d="m35.288,50.84745l6.016,-8.992l5.696,0l-7.712,11.36l7.712,10.784l-5.728,0l-6.08,-8.64l-12.384,0l0,8.64l-5.088,0l0,-22.144l5.088,0l0,8.992l12.48,0zm15.432,-8.992l25.888,0l0,4.384l-20.928,0l0,4.576l18.944,0l0,4.288l-18.944,0l0,4.48l20.928,0l0,4.416l-25.888,0l0,-22.144zm30.4063,0l25.8877,0l0,4.384l-20.9277,0l0,4.576l18.9437,0l0,4.288l-18.9437,0l0,4.48l20.9277,0l0,4.416l-25.8877,0l0,-22.144zm55.0467,15.264l0,-15.264l5.056,0l0,22.144l-4.768,0l-19.904,-15.296l0,15.296l-5.024,0l0,-22.144l4.736,0l19.904,15.264zm9.333,8.864l16,0l0,3.968l-16,0l0,-3.968zm20.308,-24.128l18.528,0c7.008,0 9.824,3.232 9.824,8.16l0,0.032c0,4.96 -2.816,8.16 -9.824,8.16l-13.568,0l0,5.792l-4.96,0l0,-22.144zm23.36,8.192l0,-0.032c0,-2.368 -1.376,-3.584 -4.832,-3.584l-13.568,0l0,7.2l13.568,0c3.456,0 4.832,-1.184 4.832,-3.584zm32.6,6.4l5.248,7.552l-5.6,0l-4.48,-6.848l-0.032,0l-13.824,0l0,6.848l-4.96,0l0,-22.144l18.784,0c6.848,0 9.568,3.232 9.568,7.712l0,0.032c0,3.168 -1.376,5.664 -4.704,6.848zm-4.864,-10.144l-13.824,0l0,6.592l13.824,0c3.136,0 4.576,-1.056 4.576,-3.296l0,-0.032c0,-2.208 -1.44,-3.264 -4.576,-3.264zm12.053,-4.448l27.776,0l0,4.704l-11.328,0l0,17.44l-5.12,0l0,-17.44l-11.328,0l0,-4.704z"/>
   </g>
  </g>
  <g stroke="null" id="svg_8">
   <g stroke="null" id="svg_9" clip-path="url(#assetClipPath_ArylPvbK)">
    <path stroke="null" id="svg_10" fill="rgba(229,12,51,1)" d="m274.10108,29.50831l10.0493,10.84308l6.54893,-4.19395l-11.24283,-20.8585c-3.50786,-5.87603 -8.93921,-10.39092 -15.40433,-12.63428c-5.19492,-1.8026 -11.79805,-3.19904 -18.85692,-2.46516c-16.135,1.67673 28.5489,29.30917 28.5489,29.30917l0.35695,-0.00036z"/>
    <path stroke="null" id="svg_11" fill="rgba(229,12,51,1)" d="m212.30189,25.18063c-2.14387,-8.76839 25.35057,-26.34263 34.76441,-24.86203c32.49644,5.11148 30.14789,26.28379 30.14789,26.28379s0.03709,12.73662 -1.92634,19.30944c-21.89335,-14.10382 -38.45627,-24.58567 -62.98595,-20.7312z"/>
    <ellipse stroke="null" id="svg_12" transform="matrix(0.355241 -0.0310796 0.0310796 0.355241 397.919 31.2325)" ry="24.681" rx="26.681" fill="rgba(225,227,227,1)" cy="-20.1946" cx="-295.60934"/>
   </g>
  </g>
 </g>
</svg>